<svg width="86" height="80" viewBox="0 0 86 80" fill="none" xmlns="http://www.w3.org/2000/svg">
<path d="M43 55.75C44.2042 55.75 45.2143 55.342 46.0303 54.526C46.8463 53.71 47.2528 52.7013 47.25 51.5C47.2472 50.2987 46.8392 49.29 46.026 48.474C45.2128 47.658 44.2042 47.25 43 47.25C41.7958 47.25 40.7872 47.658 39.974 48.474C39.1608 49.29 38.7528 50.2987 38.75 51.5C38.7472 52.7013 39.1552 53.7114 39.974 54.5303C40.7928 55.3491 41.8015 55.7557 43 55.75ZM43 38.75C44.2042 38.75 45.2143 38.342 46.0303 37.526C46.8463 36.71 47.2528 35.7013 47.25 34.5V17.5C47.25 16.2958 46.842 15.2872 46.026 14.474C45.21 13.6608 44.2013 13.2528 43 13.25C41.7987 13.2472 40.79 13.6552 39.974 14.474C39.158 15.2928 38.75 16.3015 38.75 17.5V34.5C38.75 35.7042 39.158 36.7143 39.974 37.5303C40.79 38.3463 41.7987 38.7528 43 38.75ZM17.5 68.5L7.72501 78.275C6.37917 79.6208 4.83784 79.9226 3.10101 79.1803C1.36417 78.4379 0.497174 77.1091 0.500007 75.1938V9C0.500007 6.6625 1.33301 4.66217 2.99901 2.999C4.66501 1.33583 6.66534 0.502833 9.00001 0.5H77C79.3375 0.5 81.3393 1.333 83.0053 2.999C84.6713 4.665 85.5028 6.66533 85.5 9V60C85.5 62.3375 84.6684 64.3392 83.0053 66.0052C81.3421 67.6712 79.3403 68.5028 77 68.5H17.5ZM13.8875 60H77V9H9.00001V64.7812L13.8875 60Z" fill="#FF0000"/>
</svg>
