<svg width="101" height="104" viewBox="0 0 101 104" fill="none" xmlns="http://www.w3.org/2000/svg">
<path d="M44.7171 48.1522C44.7171 48.8019 44.1926 49.3264 43.543 49.3264C42.8933 49.3264 42.3688 48.8019 42.3688 48.1522V37.8712C42.3688 37.2216 42.8933 36.6971 43.543 36.6971H49.9857C51.6784 36.6971 53.1922 36.8878 54.5272 37.2693C55.904 37.6686 57.09 38.2705 58.0854 39.0871C59.0926 39.9155 59.8495 40.9168 60.3561 42.0909C60.8568 43.2472 61.1071 44.5524 61.1071 46.0007C61.1071 47.4847 60.8508 48.8198 60.3442 50.0118C59.8316 51.2216 59.0628 52.2587 58.0436 53.1408L58.0377 53.1467C57.0304 54.0109 55.8384 54.6546 54.4676 55.0778C53.1326 55.495 51.6366 55.7036 49.9798 55.7036H29.4476C28.7979 55.7036 28.2734 55.1791 28.2734 54.5294V1.42583C28.2734 0.776187 28.7979 0.251709 29.4476 0.251709H49.4851C53.3412 0.251709 56.7444 0.609307 59.7005 1.31855C62.6984 2.04567 65.2195 3.13635 67.2697 4.60251C69.3676 6.10443 70.9411 7.96991 71.996 10.1989C73.039 12.4041 73.5635 14.955 73.5635 17.8397C73.5635 19.6098 73.3251 21.2548 72.8483 22.7746C72.3655 24.3122 71.6444 25.7128 70.6788 26.9764C69.7133 28.2399 68.5154 29.3544 67.085 30.3199C66.477 30.7312 65.8274 31.1126 65.1301 31.4702C66.0181 31.8218 66.8525 32.2331 67.6452 32.7039C69.314 33.6992 70.7504 34.9449 71.9602 36.4468C73.1701 37.9547 74.076 39.6294 74.684 41.4651C75.28 43.2889 75.5839 45.2616 75.5839 47.3894C75.5839 50.6733 74.9641 53.5818 73.7304 56.0969C72.4847 58.6299 70.6312 60.7517 68.1637 62.4503C65.732 64.125 62.7461 65.3766 59.1939 66.1991C55.6894 67.0156 51.6366 67.4209 47.0355 67.4209H43.1138C42.4642 67.4209 41.9397 66.8964 41.9397 66.2468C41.9397 65.5972 42.4642 65.0727 43.1138 65.0727H47.0355C51.4698 65.0727 55.3438 64.6853 58.6635 63.9164C61.9355 63.1536 64.6592 62.0271 66.8346 60.5252C68.9743 59.0531 70.5716 57.2353 71.6324 55.0658C72.6993 52.8845 73.2357 50.3217 73.2357 47.3834C73.2357 45.4941 72.9794 43.7657 72.4549 42.1803C71.9424 40.6128 71.1676 39.1884 70.1365 37.907C69.0994 36.6137 67.8717 35.5468 66.4532 34.7065C65.0168 33.8542 63.3719 33.2165 61.5124 32.7933C61.1369 32.7099 60.8091 32.4357 60.672 32.0483C60.4574 31.4404 60.7674 30.7729 61.3753 30.5583C63.05 29.9564 64.5162 29.2292 65.7738 28.3829C67.0015 27.5545 68.0147 26.6188 68.8193 25.5638C69.612 24.5208 70.214 23.3586 70.6133 22.0832C71.0186 20.7958 71.2212 19.3833 71.2212 17.8456C71.2212 15.3007 70.7742 13.0836 69.8862 11.2002C69.0041 9.33475 67.681 7.77323 65.9168 6.50971C64.105 5.21639 61.8521 4.24491 59.1522 3.58931C56.4046 2.92775 53.1862 2.59399 49.491 2.59399H30.6217V53.3553H49.9917C51.4161 53.3553 52.6796 53.1825 53.7822 52.8428C54.8491 52.509 55.7669 52.0203 56.5298 51.3706C57.2748 50.727 57.835 49.97 58.2046 49.0939C58.58 48.2059 58.7708 47.1748 58.7708 46.0007C58.7708 44.8563 58.586 43.861 58.2224 43.0147C57.8648 42.1863 57.3284 41.477 56.6073 40.887C55.8742 40.285 54.9683 39.8261 53.8955 39.5162C52.775 39.1944 51.4757 39.0334 49.9917 39.0334H44.723V48.1522H44.7171ZM48.6924 28.2339H43.5489C42.8993 28.2339 42.3748 27.7094 42.3748 27.0598V12.4161C42.3748 11.7664 42.8993 11.2419 43.5489 11.2419H48.3229C50.1288 11.2419 51.7082 11.391 53.073 11.7009C54.4855 12.0168 55.6656 12.5055 56.6013 13.167C57.5907 13.8524 58.3357 14.7345 58.8304 15.8192C59.3072 16.8682 59.5515 18.0781 59.5515 19.4548C59.5515 22.2501 58.5443 24.4314 56.5358 25.9929L56.4583 26.0466C55.4928 26.7797 54.3604 27.328 53.0611 27.6916C51.7678 28.0551 50.3135 28.2339 48.6924 28.2339ZM44.7171 25.8916H48.6924C50.1109 25.8916 51.3565 25.7367 52.4293 25.4387C53.4425 25.1526 54.3186 24.7354 55.0458 24.1871L55.0994 24.1453C56.506 23.0547 57.2092 21.4872 57.2092 19.4548C57.2092 18.4059 57.0424 17.5178 56.7086 16.7907C56.3927 16.0994 55.9159 15.5332 55.2722 15.0921L55.2603 15.0862C54.5809 14.6034 53.6809 14.2398 52.5664 13.9895C51.3923 13.7273 49.9798 13.5962 48.3169 13.5962H44.7111V25.8916H44.7171Z" fill="#006AEA"/>
<path fill-rule="evenodd" clip-rule="evenodd" d="M36.2178 65.1382L30.079 61.592C29.2566 61.1212 28.2314 61.7112 28.2314 62.6589V69.7453C28.2314 70.693 29.2566 71.283 30.079 70.8122L36.2119 67.2719C37.0344 66.7951 37.0344 65.6091 36.2178 65.1382Z" fill="#EDC70A"/>
<path d="M11.9604 79.776C12.4074 79.776 12.7829 79.931 13.0988 80.2409C13.4087 80.5508 13.5637 80.9322 13.5637 81.3792V84.6572C13.5637 85.0864 13.4206 85.4559 13.1286 85.7598C12.8425 86.0638 12.479 86.2307 12.0498 86.2605C12.02 86.2605 11.9902 86.2605 11.9604 86.2605H12.026C12.4551 86.2605 12.8187 86.4095 13.1167 86.7134C13.4147 87.0174 13.5696 87.381 13.5696 87.8041V91.2013C13.5696 91.6304 13.4206 91.994 13.1167 92.292C12.8187 92.596 12.4551 92.745 12.026 92.745H0.594727V84.6096H3.84889V84.6334H9.73737C9.89829 84.6334 10.0413 84.5798 10.1546 84.4665C10.2678 84.3533 10.3274 84.2162 10.3274 84.0493V83.6083C10.3274 83.4414 10.2678 83.3043 10.1546 83.1911C10.0413 83.0778 9.89829 83.0242 9.73737 83.0242H4.82633V83.0182H0.594727V79.776H3.00853H11.9604ZM10.3274 88.8233V88.5551C10.3274 88.3703 10.2618 88.2094 10.1307 88.0783C9.99961 87.9472 9.83869 87.8816 9.65393 87.8816H3.85485V89.4968H9.65393C9.83869 89.4968 9.99961 89.4312 10.1307 89.3001C10.2618 89.169 10.3274 89.014 10.3274 88.8233Z" fill="#303030"/>
<path d="M20.5548 79.776H23.791L28.6604 92.745H25.4181L22.1759 84.6394L18.9396 92.745H15.6914L20.5548 79.776Z" fill="#303030"/>
<path d="M34.0539 79.776V89.5027H40.5324V92.745H33.583H30.8057V79.776H34.0539Z" fill="#303030"/>
<path d="M47.4942 79.776H50.7305L55.5998 92.745H52.3576L49.1153 84.6394L45.8791 92.745H42.6309L47.4942 79.776Z" fill="#303030"/>
<path d="M67.4895 84.6573H70.7318V92.7629H67.4895L60.9991 84.6573V87.8995V89.5266V92.7688H57.7568V89.5266V87.8995V79.7939H60.9991L67.4895 87.8995V84.6573ZM85.8284 83.0302H67.4895V82.917C67.4895 82.3388 67.6326 81.8144 67.9127 81.3435C68.1928 80.8727 68.5683 80.4912 69.0391 80.2111C69.51 79.931 70.0344 79.788 70.6126 79.788H85.8284V83.0302ZM85.8284 92.7629H75.8574C75.3031 92.7629 74.8024 92.6258 74.3435 92.3576C73.8906 92.0834 73.527 91.7199 73.2588 91.2669C72.9906 90.814 72.8535 90.3074 72.8535 89.7531V84.6573H76.0958V87.7982C76.0958 88.269 76.2626 88.6743 76.6024 89.014C76.9421 89.3538 77.3474 89.5206 77.8182 89.5206H85.8284V92.7629Z" fill="#303030"/>
<path d="M87.9268 83.0182V79.776H100.896V83.0182H87.9268ZM87.9268 92.739V84.6334H100.896V87.8816H91.169V89.4968H100.896V92.739H87.9268Z" fill="#303030"/>
<path d="M0.588867 99.5872V98.3356H5.59527V99.5872H0.588867ZM0.588867 103.342V100.213H5.59527V101.465H1.84047V103.342H0.588867Z" fill="#EDC70A"/>
<path d="M8.11035 103.342V98.3354H9.36195V103.342H8.11035Z" fill="#EDC70A"/>
<path d="M11.7695 99.5871V98.3354H16.7759V99.5871H14.8985V101.464V102.09V103.342H13.6469V102.09V101.464V99.5871H11.7695Z" fill="#EDC70A"/>
<path d="M23.0458 101.464V98.3354H24.2974V103.342H23.0458L20.5426 100.213V101.464V102.09V103.342H19.291V102.09V101.464V98.3354H20.5426L23.0458 101.464Z" fill="#EDC70A"/>
<path d="M26.8252 99.5871V98.3354H31.8316V99.5871H26.8252ZM26.8252 103.342V100.213H31.8316V101.464H28.0768V102.09H31.8316V103.342H26.8252Z" fill="#EDC70A"/>
<path d="M34.3702 99.5215C34.3702 99.301 34.4239 99.1043 34.5311 98.9255C34.6384 98.7467 34.7815 98.6037 34.9603 98.4964C35.1391 98.3891 35.3417 98.3354 35.5563 98.3354H39.3707V99.5871H35.9079C35.8245 99.5871 35.7589 99.6169 35.6993 99.6705C35.6397 99.7241 35.6159 99.7957 35.6159 99.8731V99.9089C35.6159 99.9923 35.6457 100.064 35.7053 100.123C35.7649 100.183 35.8364 100.213 35.9139 100.213H38.1548C38.3753 100.213 38.578 100.266 38.7627 100.38C38.9475 100.487 39.0905 100.636 39.2038 100.821C39.3111 101.006 39.3707 101.208 39.3707 101.435V102.12C39.3707 102.347 39.317 102.549 39.2038 102.734C39.0905 102.919 38.9475 103.068 38.7627 103.175C38.578 103.282 38.3753 103.342 38.1489 103.342H34.3643V102.09H37.8091C37.8926 102.09 37.9701 102.06 38.0297 102.001C38.0893 101.941 38.1191 101.864 38.1191 101.78C38.1191 101.691 38.0893 101.619 38.0297 101.56C37.9701 101.5 37.8926 101.47 37.8091 101.47H35.4907C35.2821 101.47 35.0973 101.423 34.9245 101.321C34.7517 101.22 34.6205 101.083 34.5192 100.916C34.4179 100.743 34.3702 100.559 34.3702 100.35V99.5215Z" fill="#EDC70A"/>
<path d="M41.8556 99.5215C41.8556 99.301 41.9092 99.1043 42.0165 98.9255C42.1238 98.7467 42.2668 98.6037 42.4456 98.4964C42.6244 98.3891 42.827 98.3354 43.0416 98.3354H46.856V99.5871H43.3933C43.3098 99.5871 43.2443 99.6169 43.1847 99.6705C43.1251 99.7241 43.1012 99.7957 43.1012 99.8731V99.9089C43.1012 99.9923 43.131 100.064 43.1906 100.123C43.2502 100.183 43.3217 100.213 43.3992 100.213H45.6402C45.8607 100.213 46.0633 100.266 46.2481 100.38C46.4329 100.487 46.5759 100.636 46.6891 100.821C46.7964 101.006 46.856 101.208 46.856 101.435V102.12C46.856 102.347 46.8024 102.549 46.6891 102.734C46.5759 102.919 46.4329 103.068 46.2481 103.175C46.0633 103.282 45.8607 103.342 45.6342 103.342H41.8496V102.09H45.2945C45.3779 102.09 45.4554 102.06 45.515 102.001C45.5746 101.941 45.6044 101.864 45.6044 101.78C45.6044 101.691 45.5746 101.619 45.515 101.56C45.4554 101.5 45.3779 101.47 45.2945 101.47H42.9761C42.7675 101.47 42.5827 101.423 42.4099 101.321C42.237 101.22 42.1059 101.083 42.0046 100.916C41.9033 100.743 41.8556 100.559 41.8556 100.35V99.5215Z" fill="#EDC70A"/>
<path d="M52.3877 99.5334C52.3877 99.3129 52.4413 99.1102 52.5486 98.9255C52.6559 98.7407 52.8049 98.5977 52.9837 98.4904C53.1625 98.3831 53.3651 98.3295 53.5916 98.3295H57.3941V99.5811H52.3877V99.5334ZM53.6393 101.423C53.6393 101.607 53.7049 101.762 53.836 101.894C53.9671 102.025 54.1221 102.09 54.3068 102.09H57.3941V103.342H53.5499C53.3353 103.342 53.1387 103.288 52.9658 103.187C52.793 103.086 52.6499 102.943 52.5486 102.77C52.4473 102.597 52.3937 102.4 52.3937 102.186V100.213H53.6453V101.423H53.6393Z" fill="#EDC70A"/>
<path d="M62.3763 98.3354C62.7219 98.3354 63.0497 98.401 63.3477 98.5321C63.6517 98.6633 63.9139 98.8421 64.1464 99.0685C64.3728 99.295 64.5517 99.5632 64.6828 99.8672C64.8139 100.171 64.8795 100.493 64.8795 100.839C64.8795 101.184 64.8139 101.506 64.6828 101.81C64.5517 102.114 64.3728 102.382 64.1464 102.609C63.9199 102.835 63.6517 103.014 63.3477 103.145C63.0438 103.276 62.7219 103.342 62.3763 103.342C62.0306 103.342 61.7087 103.276 61.4048 103.145C61.1008 103.014 60.8386 102.835 60.6061 102.609C60.3797 102.382 60.2008 102.114 60.0697 101.81C59.9386 101.506 59.873 101.184 59.873 100.839C59.873 100.624 59.8969 100.415 59.9505 100.213H61.2915C61.1783 100.404 61.1247 100.612 61.1247 100.839C61.1247 101.071 61.1783 101.28 61.2915 101.47C61.4048 101.661 61.5538 101.81 61.7445 101.923C61.9352 102.037 62.1438 102.09 62.3763 102.09C62.6087 102.09 62.8173 102.037 63.008 101.923C63.1987 101.81 63.3477 101.661 63.461 101.47C63.5742 101.28 63.6278 101.071 63.6278 100.839C63.6278 100.606 63.5742 100.398 63.461 100.207C63.3477 100.016 63.1987 99.8672 63.008 99.7539C62.8173 99.6407 62.6087 99.5871 62.3763 99.5871H60.2068C60.3558 99.3367 60.5346 99.1162 60.7551 98.9314C60.9757 98.7467 61.22 98.5977 61.5001 98.4964C61.7743 98.3831 62.0663 98.3354 62.3763 98.3354Z" fill="#EDC70A"/>
<path d="M69.9095 99.897L71.1611 98.3354H72.4127V103.342H71.1611V100.213L69.9095 101.78L68.6579 100.213V103.342H67.4062V98.3354H68.6579L69.9095 99.897Z" fill="#EDC70A"/>
<path d="M78.6467 98.3354C78.8851 98.3354 79.0996 98.3951 79.2963 98.5083C79.493 98.6215 79.648 98.7825 79.7672 98.9791C79.8864 99.1758 79.94 99.3904 79.94 99.6347V100.177C79.94 100.415 79.8804 100.636 79.7672 100.827C79.648 101.023 79.493 101.178 79.2963 101.298C79.0996 101.417 78.8851 101.47 78.6467 101.47H76.1912V103.348H74.9336V100.213H76.1912V100.219H78.4202C78.4977 100.219 78.5632 100.195 78.6109 100.141C78.6646 100.088 78.6884 100.028 78.6884 99.9506V99.8612C78.6884 99.7837 78.6646 99.7241 78.6109 99.6705C78.5573 99.6169 78.4917 99.593 78.4202 99.593H74.9336V98.3414H78.6467V98.3354Z" fill="#EDC70A"/>
<path d="M83.6598 98.3354V102.09H86.163V103.342H83.481H82.4082V98.3354H83.6598Z" fill="#EDC70A"/>
<path d="M88.6357 99.5871V98.3354H93.6421V99.5871H88.6357ZM88.6357 103.342V100.213H93.6421V101.464H89.8873V102.09H93.6421V103.342H88.6357Z" fill="#EDC70A"/>
<path d="M100.985 98.3354L99.2385 100.868L100.985 103.384L99.4232 103.39L98.4577 101.995L97.4922 103.39L95.9307 103.384L97.6769 100.868L95.9307 98.3354H97.4743L98.4577 99.748L99.4411 98.3354H100.985Z" fill="#EDC70A"/>
</svg>
