<svg width="94" height="84" viewBox="0 0 94 84" fill="none" xmlns="http://www.w3.org/2000/svg">
<path d="M91.7284 67.1492L56.8851 6.63851C55.8759 4.91253 54.4323 3.48087 52.6981 2.48595C50.9638 1.49103 48.9992 0.967529 46.9999 0.967529C45.0005 0.967529 43.0359 1.49103 41.3017 2.48595C39.5674 3.48087 38.1238 4.91253 37.1146 6.63851L2.27127 67.1492C1.29199 68.8241 0.775879 70.7294 0.775879 72.6696C0.775879 74.6097 1.29199 76.515 2.27127 78.1899C3.26931 79.9245 4.71086 81.3623 6.44801 82.3559C8.18517 83.3494 10.1554 83.863 12.1565 83.8437H81.8432C83.843 83.8615 85.8116 83.3474 87.5472 82.3539C89.2828 81.3604 90.7231 79.9233 91.7205 78.1899C92.701 76.5157 93.2185 74.6108 93.2199 72.6706C93.2213 70.7305 92.7065 68.8248 91.7284 67.1492ZM83.441 73.4047C83.2789 73.6808 83.0453 73.908 82.7647 74.0623C82.4842 74.2166 82.1672 74.2923 81.8472 74.2812H12.1565C11.8365 74.2923 11.5195 74.2166 11.239 74.0623C10.9584 73.908 10.7248 73.6808 10.5628 73.4047C10.4253 73.1812 10.3525 72.924 10.3525 72.6616C10.3525 72.3992 10.4253 72.142 10.5628 71.9185L45.4061 11.4078C45.5786 11.1422 45.8148 10.924 46.0931 10.7729C46.3715 10.6218 46.6832 10.5427 46.9999 10.5427C47.3166 10.5427 47.6282 10.6218 47.9066 10.7729C48.1849 10.924 48.4211 11.1422 48.5936 11.4078L83.433 71.9185C83.5716 72.1413 83.6458 72.3981 83.6472 72.6605C83.6486 72.9228 83.5772 73.1805 83.441 73.4047ZM42.2186 47.1875V34.4375C42.2186 33.1694 42.7223 31.9533 43.619 31.0566C44.5157 30.16 45.7318 29.6562 46.9999 29.6562C48.2679 29.6562 49.4841 30.16 50.3807 31.0566C51.2774 31.9533 51.7811 33.1694 51.7811 34.4375V47.1875C51.7811 48.4556 51.2774 49.6717 50.3807 50.5683C49.4841 51.465 48.2679 51.9687 46.9999 51.9687C45.7318 51.9687 44.5157 51.465 43.619 50.5683C42.7223 49.6717 42.2186 48.4556 42.2186 47.1875ZM53.3749 63.125C53.3749 64.3859 53.001 65.6184 52.3005 66.6668C51.6 67.7151 50.6043 68.5322 49.4395 69.0147C48.2746 69.4972 46.9928 69.6235 45.7562 69.3775C44.5195 69.1315 43.3836 68.5244 42.4921 67.6328C41.6005 66.7412 40.9933 65.6053 40.7474 64.3687C40.5014 63.1321 40.6276 61.8503 41.1101 60.6854C41.5926 59.5205 42.4097 58.5249 43.4581 57.8244C44.5065 57.1239 45.739 56.75 46.9999 56.75C48.6906 56.75 50.3121 57.4216 51.5077 58.6172C52.7032 59.8127 53.3749 61.4342 53.3749 63.125Z" fill="#EDC70A"/>
</svg>
