<svg width="26" height="24" viewBox="0 0 26 24" fill="none" xmlns="http://www.w3.org/2000/svg">
<path d="M3.83936 9.65698V21.7556C3.83936 21.9731 3.9259 22.1817 4.07995 22.3356C4.23399 22.4894 4.44293 22.5758 4.66078 22.5758H9.58936V15.6037C9.58936 15.2774 9.71917 14.9645 9.95024 14.7337C10.1813 14.503 10.4947 14.3734 10.8215 14.3734H14.9286C15.2554 14.3734 15.5688 14.503 15.7999 14.7337C16.031 14.9645 16.1608 15.2774 16.1608 15.6037V22.5758H21.0894C21.3072 22.5758 21.5161 22.4894 21.6702 22.3356C21.8242 22.1817 21.9108 21.9731 21.9108 21.7556V9.65698" stroke="#006AEA" stroke-width="1.5" stroke-linecap="round" stroke-linejoin="round"/>
<path d="M24.375 11.8973L13.4341 1.42323C13.1774 1.15213 12.5772 1.14905 12.3159 1.42323L1.375 11.8973M20.2679 7.94386V2.03935H17.8036V5.58206" stroke="#006AEA" stroke-width="1.5" stroke-linecap="round" stroke-linejoin="round"/>
</svg>
