<svg width="24" height="24" viewBox="0 0 24 24" fill="none" xmlns="http://www.w3.org/2000/svg">
<rect width="24" height="24" fill="white"/>
<path fill-rule="evenodd" clip-rule="evenodd" d="M19.3922 14.4061C19.3922 13.8325 19.1644 13.2824 18.7588 12.8768C18.3532 12.4712 17.8031 12.2433 17.2295 12.2433H17.227C16.6534 12.2433 16.1033 12.4712 15.6977 12.8768C15.2921 13.2824 15.0643 13.8325 15.0643 14.4061C15.0643 15.3731 15.0643 16.6362 15.0643 17.6032C15.0643 18.1768 15.2921 18.7269 15.6977 19.1325C16.1033 19.5381 16.6534 19.766 17.227 19.766H17.2295C17.8031 19.766 18.3532 19.5381 18.7588 19.1325C19.1644 18.7269 19.3922 18.1768 19.3922 17.6032V14.4061ZM8.9466 14.4061C8.94662 13.8325 8.71875 13.2824 8.31315 12.8768C7.90755 12.4712 7.35746 12.2433 6.78384 12.2433H6.78141C6.20782 12.2433 5.6577 12.4712 5.2521 12.8768C4.84651 13.2824 4.61865 13.8325 4.61865 14.4061C4.61865 15.3731 4.61865 16.6362 4.61865 17.6032C4.61865 18.1768 4.84651 18.7269 5.2521 19.1325C5.6577 19.5381 6.20782 19.766 6.78141 19.766H6.78384C7.35746 19.766 7.90755 19.5381 8.31315 19.1325C8.71875 18.7269 8.94662 18.1768 8.9466 17.6032V14.4061ZM17.989 14.4061V17.6032C17.989 17.8046 17.909 17.9978 17.7665 18.1403C17.6241 18.2827 17.4309 18.3627 17.2295 18.3628C17.2294 18.3628 17.227 18.3628 17.227 18.3628C17.0256 18.3627 16.8324 18.2827 16.6899 18.1403C16.5475 17.9978 16.4674 17.8046 16.4674 17.6032V14.4061C16.4674 14.2046 16.5475 14.0114 16.6899 13.869C16.8324 13.7265 17.0256 13.6465 17.227 13.6465C17.2271 13.6465 17.2294 13.6465 17.2294 13.6465C17.4309 13.6465 17.6241 13.7265 17.7665 13.869C17.909 14.0114 17.989 14.2046 17.989 14.4061ZM7.54342 14.4061V17.6032C7.54342 17.8046 7.4634 17.9978 7.32095 18.1403C7.1785 18.2827 6.98531 18.3627 6.78388 18.3628C6.78379 18.3628 6.78144 18.3628 6.78144 18.3628C6.57994 18.3627 6.38675 18.2827 6.24432 18.1403C6.10187 17.9978 6.02183 17.8046 6.02183 17.6032V14.4061C6.02183 14.2046 6.10187 14.0114 6.24432 13.869C6.38675 13.7265 6.57994 13.6465 6.78139 13.6465C6.78148 13.6465 6.78384 13.6465 6.78384 13.6465C6.98531 13.6465 7.1785 13.7265 7.32095 13.869C7.4634 14.0114 7.54342 14.2046 7.54342 14.4061Z" fill="#4F4F4F"/>
<path fill-rule="evenodd" clip-rule="evenodd" d="M21.2521 16.0462V11.074C21.252 6.55343 17.5874 2.88879 13.0668 2.88879C12.3625 2.88879 11.6484 2.88879 10.9441 2.88879C6.42355 2.88879 2.75891 6.55343 2.75891 11.074C2.75891 13.7176 2.75891 16.0462 2.75891 16.0462C2.75891 16.4335 3.07327 16.7478 3.4605 16.7478C3.84771 16.7478 4.16209 16.4335 4.16209 16.0462V11.074C4.16211 7.32837 7.19853 4.29197 10.9441 4.29197C11.6484 4.29197 12.3625 4.29197 13.0668 4.29197C16.8124 4.29197 19.8488 7.32837 19.8489 11.074C19.8489 11.074 19.8489 16.0462 19.8489 16.0462C19.8489 16.4335 20.1632 16.7478 20.5505 16.7478C20.9377 16.7478 21.2521 16.4335 21.2521 16.0462ZM9.91637 6.3811H13.6768C14.064 6.3811 14.3784 6.06672 14.3784 5.67951C14.3784 5.29227 14.064 4.97792 13.6768 4.97792H9.91637C9.52913 4.97792 9.21478 5.29227 9.21478 5.67951C9.21478 6.06672 9.52913 6.3811 9.91637 6.3811Z" fill="#4F4F4F"/>
</svg>
