<svg width="13" height="13" viewBox="0 0 13 13" fill="none" xmlns="http://www.w3.org/2000/svg">
<path d="M11.8306 0.219191C11.5703 -0.0411625 11.1482 -0.0411625 10.8878 0.219191L6.0249 5.08212L1.162 0.219191C0.901651 -0.0411625 0.479537 -0.0411625 0.219191 0.219191C-0.0411626 0.479537 -0.0411626 0.901651 0.219191 1.162L5.0821 6.02492L0.219204 10.8878C-0.0411492 11.1482 -0.0411492 11.5703 0.219204 11.8307C0.479551 12.091 0.901664 12.091 1.16201 11.8307L6.0249 6.96772L10.8878 11.8307C11.1482 12.091 11.5703 12.091 11.8306 11.8307C12.091 11.5703 12.091 11.1482 11.8306 10.8878L6.9677 6.02492L11.8306 1.162C12.091 0.901651 12.091 0.479537 11.8306 0.219191Z" fill="#FAFAFA"/>
</svg>
